<svg id="Capa_1" enable-background="new 0 0 497 497" height="512" viewBox="0 0 497 497" width="512" xmlns="http://www.w3.org/2000/svg"><g><g><path d="m82.833 460.28-44.47-14.546-38.363 14.546v29.738c0 3.263 2.645 5.908 5.908 5.908h76.925z" fill="#e490b7"/><path d="m55.333 460.28v35.646h27.5v-35.646l-16.49-5.394z" fill="#df75a5"/><path d="m165.667 460.28-41.417-14.546-41.417 14.546v35.646h82.834z" fill="#e490b7"/><path d="m138.167 460.28v35.646h27.5v-35.646l-15.358-5.394z" fill="#df75a5"/><path d="m248.5 460.28-41.417-14.546-41.416 14.546v35.646h82.833z" fill="#e490b7"/><path d="m221 460.28v35.646h27.5v-35.646l-15.358-5.394z" fill="#df75a5"/><path d="m331.333 460.28-41.416-14.546-41.417 14.546v35.646h82.833z" fill="#e490b7"/><path d="m303.833 460.28v35.646h27.5v-35.646l-15.358-5.394z" fill="#df75a5"/><path d="m414.167 460.28-41.417-14.546-41.417 14.546v35.646h82.834z" fill="#e490b7"/><path d="m386.667 460.28v35.646h27.5v-35.646l-15.359-5.394z" fill="#df75a5"/><path d="m497 460.28-41.417-14.546-41.417 14.546v35.646h76.925c3.263 0 5.908-2.645 5.908-5.908v-29.738z" fill="#e490b7"/><path d="m469.5 460.28v29.738c0 3.263-2.645 5.908-5.908 5.908h27.5c3.263 0 5.908-2.645 5.908-5.908v-29.738l-15.025-5.277z" fill="#df75a5"/></g><g><path d="m124.25 376.237h-82.833v-85.286c0-15.364 12.455-27.819 27.819-27.819h27.195c15.364 0 27.819 12.455 27.819 27.819z" fill="#dd5790"/><path d="m96.431 263.131h-27.195c-.051 0-.101.004-.152.004 15.294.083 27.667 12.502 27.667 27.815v85.286h27.5v-85.286c-.001-15.364-12.456-27.819-27.82-27.819z" fill="#da387d"/><path d="m207.083 376.237h-82.833v-85.286c0-15.364 12.455-27.819 27.819-27.819h27.195c15.364 0 27.819 12.455 27.819 27.819z" fill="#dd5790"/><path d="m179.264 263.131h-27.195c-.051 0-.101.004-.152.004 15.293.083 27.667 12.502 27.667 27.815v85.286h27.5v-85.286c-.001-15.364-12.456-27.819-27.82-27.819z" fill="#da387d"/><path d="m289.917 376.237h-82.833v-85.286c0-15.364 12.455-27.819 27.819-27.819h27.195c15.364 0 27.819 12.455 27.819 27.819z" fill="#dd5790"/><path d="m262.097 263.131h-27.195c-.051 0-.102.004-.153.004 15.293.083 27.667 12.502 27.667 27.815v85.286h27.5v-85.286c.001-15.364-12.454-27.819-27.819-27.819z" fill="#da387d"/><path d="m372.75 376.237h-82.833v-85.286c0-15.364 12.455-27.819 27.819-27.819h27.195c15.364 0 27.819 12.455 27.819 27.819z" fill="#dd5790"/><path d="m344.931 263.131h-27.195c-.051 0-.101.004-.152.004 15.294.083 27.667 12.502 27.667 27.815v85.286h27.5v-85.286c-.001-15.364-12.456-27.819-27.82-27.819z" fill="#da387d"/><path d="m455.583 376.237h-82.833v-85.286c0-15.364 12.455-27.819 27.819-27.819h27.195c15.364 0 27.819 12.455 27.819 27.819z" fill="#dd5790"/><path d="m427.764 263.131h-27.195c-.051 0-.101.004-.152.004 15.293.083 27.667 12.502 27.667 27.815v85.286h27.5v-85.286c-.001-15.364-12.456-27.819-27.82-27.819z" fill="#da387d"/></g><g><path d="m82.833 460.28h-82.833v-85.286c0-15.364 12.455-27.819 27.819-27.819h27.195c15.364 0 27.819 12.455 27.819 27.819z" fill="#dd5790"/><path d="m55.014 347.174h-27.195c-.051 0-.101.003-.152.004 15.293.083 27.667 12.502 27.667 27.815v85.286h27.5v-85.286c-.001-15.364-12.456-27.819-27.82-27.819z" fill="#da387d"/><path d="m165.667 460.28h-82.834v-85.286c0-15.364 12.455-27.819 27.819-27.819h27.195c15.364 0 27.819 12.455 27.819 27.819v85.286z" fill="#dd5790"/><path d="m137.847 347.174h-27.195c-.051 0-.102.003-.153.004 15.293.083 27.667 12.502 27.667 27.815v85.286h27.5v-85.286c.001-15.364-12.454-27.819-27.819-27.819z" fill="#da387d"/><path d="m248.5 460.28h-82.833v-85.286c0-15.364 12.455-27.819 27.819-27.819h27.195c15.364 0 27.819 12.455 27.819 27.819z" fill="#dd5790"/><path d="m220.681 347.174h-27.195c-.051 0-.101.003-.152.004 15.293.083 27.666 12.503 27.666 27.816v85.286h27.5v-85.286c0-15.365-12.455-27.82-27.819-27.82z" fill="#da387d"/><path d="m331.333 460.28h-82.833v-85.286c0-15.364 12.455-27.819 27.819-27.819h27.195c15.364 0 27.819 12.455 27.819 27.819z" fill="#dd5790"/><path d="m303.514 347.174h-27.195c-.051 0-.101.003-.152.004 15.293.083 27.667 12.502 27.667 27.815v85.286h27.5v-85.286c-.001-15.364-12.456-27.819-27.82-27.819z" fill="#da387d"/><path d="m414.167 460.28h-82.833v-85.286c0-15.364 12.455-27.819 27.819-27.819h27.195c15.364 0 27.819 12.455 27.819 27.819z" fill="#dd5790"/><path d="m386.347 347.174h-27.195c-.051 0-.102.003-.153.004 15.293.083 27.667 12.502 27.667 27.815v85.286h27.5v-85.286c.001-15.364-12.454-27.819-27.819-27.819z" fill="#da387d"/><path d="m497 460.28h-82.833v-85.286c0-15.364 12.455-27.819 27.819-27.819h27.195c15.364 0 27.819 12.455 27.819 27.819z" fill="#dd5790"/><path d="m469.181 347.174h-27.195c-.051 0-.101.003-.152.004 15.294.083 27.667 12.502 27.667 27.815v85.286h27.499v-85.286c0-15.364-12.455-27.819-27.819-27.819z" fill="#da387d"/></g><path d="m471.248 116.142-77.668 115.072-121.383-.004-23.697-7.532-23.697 7.532-121.383.004-77.668-115.072 104.268-115.068h236.96z" fill="#edf4ff"/><g><path d="m130.02 1.074s-1.24 117.51-78.52 117.51l-13.746-62.716 13.746-54.794z" fill="#dd5790"/><path d="m102.52 1.074s-2.17 88.009-52.255 111.876l1.235 5.634c77.28 0 78.52-117.51 78.52-117.51h-27.5z" fill="#da387d"/><path d="m51.504 118.587-17.833 67.924 17.833 44.698 51.916.004c0-70.616-51.751-112.493-51.916-112.626z" fill="#dd5790"/><path d="m51.504 118.587-4.688 17.858 4.688 14.275c12.445 19.22 24.416 46.531 24.416 80.495h27.5c0-70.618-51.751-112.495-51.916-112.628z" fill="#da387d"/></g><path d="m248.5 134.591c-4.143 0-7.5-3.357-7.5-7.5v-19.053c0-4.143 3.357-7.5 7.5-7.5s7.5 3.357 7.5 7.5v19.053c0 4.142-3.357 7.5-7.5 7.5z" fill="#dad8db"/><path d="m445.5 1.074 15.578 51.415-15.578 66.095c-77.28 0-78.52-117.51-78.52-117.51h78.52z" fill="#dd5790"/><path d="m418 1.074v111.562c7.888 3.759 16.985 5.948 27.5 5.948l15.578-66.095-15.578-51.415z" fill="#da387d"/><path d="m393.58 231.214c0-70.62 51.75-112.49 51.92-112.63l15.578 60.566-15.578 52.064z" fill="#dd5790"/><path d="m418 150.713v80.501h27.5l15.578-52.064-15.578-60.566c-.088.073-14.07 11.39-27.5 32.129z" fill="#da387d"/><path d="m491.092 231.21h-45.595v-230.135h45.595c3.263 0 5.908 2.645 5.908 5.908v218.318c0 3.264-2.645 5.909-5.908 5.909z" fill="#dad8db"/><path d="m491.092 1.075h-27.5c3.263 0 5.908 2.646 5.908 5.908v218.318c0 3.263-2.645 5.908-5.908 5.908h27.5c3.263 0 5.908-2.645 5.908-5.908v-218.318c0-3.263-2.645-5.908-5.908-5.908z" fill="#c8c5c9"/><path d="m51.504 231.21h-45.596c-3.263 0-5.908-2.645-5.908-5.908v-218.319c0-3.263 2.645-5.908 5.908-5.908h45.595v230.135z" fill="#dad8db"/><path d="m24.004 1.075h27.5v230.135h-27.5z" fill="#c8c5c9"/><path d="m272.197 231.21h-47.394l-6.978-104.119h61.35z" fill="#79737a"/><g fill="#6f6571"><path d="m251.675 127.091-6.978 104.119h27.5l6.978-104.119z"/><path d="m296.328 134.591h-95.656c-4.143 0-7.5-3.357-7.5-7.5s3.357-7.5 7.5-7.5h95.656c4.143 0 7.5 3.357 7.5 7.5s-3.357 7.5-7.5 7.5z"/></g></g></svg>