<svg id="Capa_1" enable-background="new 0 0 512.004 512.004" height="512" viewBox="0 0 512.004 512.004" width="512" xmlns="http://www.w3.org/2000/svg"><g><path d="m428.352 152.524c6.831-9.923-.253-23.52-12.35-23.52h-320c-12.036 0-19.217 13.546-12.35 23.52l157.35 228.15v101.33h-97c-8.28 0-15 6.72-15 15s6.72 15 15 15h224c8.28 0 15-6.72 15-15s-6.72-15-15-15h-97v-101.33z" fill="#d0cef1"/><path d="m271.002 380.674v101.33h97c8.28 0 15 6.72 15 15s-6.72 15-15 15h-112v-383h160c12.036 0 19.217 13.546 12.35 23.52z" fill="#a8aced"/><path d="m387.432 159.004c-49.891 72.339-36.488 52.902-57.94 84.02l-9.81-6.54c-9.53-6.35-21.83-6.35-31.36 0-19.29 12.846-44.73 13.259-64.64 0-9.488-6.332-21.859-6.341-31.36 0l-9.81 6.54c-20.271-29.405-7.589-11.013-57.94-84.02z" fill="#f4f1f1"/><path d="m387.432 159.004c-49.891 72.339-36.488 52.902-57.94 84.02l-9.81-6.54c-9.53-6.35-21.83-6.35-31.36 0-9.61 6.4-20.78 9.79-32.32 9.79v-87.27z" fill="#d0cef1"/><path d="m345.582 219.684c-22.993 33.354-5.043 7.321-89.58 129.9-85.369-123.785-68.052-98.672-89.58-129.9l9.26-8.16c19.29-12.846 44.73-13.259 64.64 0 9.488 6.332 21.859 6.341 31.36 0 19.63-13.09 45.01-13.09 64.64 0z" fill="#fff16b"/><path d="m345.582 219.684c-22.993 33.354-5.043 7.321-89.58 129.9v-133.31c5.6 0 11.02-1.64 15.68-4.75 19.63-13.09 45.01-13.09 64.64 0z" fill="#ffb454"/><path d="m397.432 21.694-128 257c-2.63 5.27-7.92 8.31-13.43 8.31-11.09 0-18.4-11.696-13.43-21.69 20.319-40.789-3.449 6.931 128-257 3.7-7.41 12.7-10.43 20.12-6.74 7.41 3.7 10.43 12.7 6.74 20.12z" fill="#ff405c"/><path d="m397.432 21.694-128 257c-2.63 5.27-7.92 8.31-13.43 8.31v-48.65l114.57-230.04c3.7-7.41 12.7-10.43 20.12-6.74 7.41 3.7 10.43 12.7 6.74 20.12z" fill="#c30047"/><path d="m256.002 129.004h131.43v30h-131.43z" fill="#a8aced"/></g></svg>